<?xml version="1.0" encoding="UTF-8"?>
<svg xmlns="http://www.w3.org/2000/svg" width="680" height="520" viewBox="0 0 680 520">
  <g transform="translate(340, 220)">
    <!-- Outer hexagonal boundary -->
    <polygon points="0,-120 104,-60 104,60 0,120 -104,60 -104,-60" fill="none" stroke="#85B7EB" stroke-width="2.5" opacity="0.9"/>

    <!-- Grid lines -->
    <line x1="-70" y1="-35" x2="70" y2="-35" stroke="#378ADD" stroke-width="0.6" opacity="0.35"/>
    <line x1="-85" y1="0" x2="85" y2="0" stroke="#378ADD" stroke-width="0.6" opacity="0.35"/>
    <line x1="-70" y1="35" x2="70" y2="35" stroke="#378ADD" stroke-width="0.6" opacity="0.35"/>
    <line x1="-35" y1="-95" x2="-35" y2="95" stroke="#378ADD" stroke-width="0.6" opacity="0.35"/>
    <line x1="0" y1="-110" x2="0" y2="110" stroke="#378ADD" stroke-width="0.6" opacity="0.35"/>
    <line x1="35" y1="-95" x2="35" y2="95" stroke="#378ADD" stroke-width="0.6" opacity="0.35"/>

    <!-- Sample points -->
    <circle cx="-52" cy="-55" r="3.5" fill="#85B7EB" opacity="0.7"/>
    <circle cx="-18" cy="-70" r="3.5" fill="#85B7EB" opacity="0.7"/>
    <circle cx="20" cy="-50" r="3.5" fill="#85B7EB" opacity="0.7"/>
    <circle cx="55" cy="-30" r="3.5" fill="#85B7EB" opacity="0.7"/>
    <circle cx="-60" cy="10" r="3.5" fill="#85B7EB" opacity="0.7"/>
    <circle cx="-20" cy="-15" r="3.5" fill="#85B7EB" opacity="0.7"/>
    <circle cx="18" cy="5" r="3.5" fill="#85B7EB" opacity="0.7"/>
    <circle cx="58" cy="20" r="3.5" fill="#85B7EB" opacity="0.7"/>
    <circle cx="-50" cy="55" r="3.5" fill="#85B7EB" opacity="0.7"/>
    <circle cx="-15" cy="40" r="3.5" fill="#85B7EB" opacity="0.7"/>
    <circle cx="25" cy="60" r="3.5" fill="#85B7EB" opacity="0.7"/>
    <circle cx="52" cy="70" r="3.5" fill="#85B7EB" opacity="0.7"/>
    <circle cx="70" cy="-10" r="3.5" fill="#85B7EB" opacity="0.6"/>
    <circle cx="-70" cy="-25" r="3.5" fill="#85B7EB" opacity="0.6"/>
    <circle cx="5" cy="80" r="3.5" fill="#85B7EB" opacity="0.6"/>
    <circle cx="-40" cy="75" r="3.5" fill="#85B7EB" opacity="0.6"/>

    <!-- Aircraft silhouette -->
    <g transform="translate(0, 0) scale(0.85)">
      <path d="M0,-58 C3,-56 5,-48 5,-30 L5,35 C5,42 3,48 0,52 C-3,48 -5,42 -5,35 L-5,-30 C-5,-48 -3,-56 0,-58 Z" fill="#85B7EB" opacity="0.85"/>
      <ellipse cx="0" cy="-52" rx="3" ry="5" fill="#B5D4F4" opacity="0.3"/>
      <path d="M5,-4 L58,20 L56,26 L5,12 Z" fill="#85B7EB" opacity="0.85"/>
      <path d="M-5,-4 L-58,20 L-56,26 L-5,12 Z" fill="#85B7EB" opacity="0.85"/>
      <path d="M5,34 L28,44 L26,48 L5,40 Z" fill="#85B7EB" opacity="0.85"/>
      <path d="M-5,34 L-28,44 L-26,48 L-5,40 Z" fill="#85B7EB" opacity="0.85"/>
      <path d="M0,20 L2,22 L2,48 L0,52 L-2,48 L-2,22 Z" fill="#B5D4F4" opacity="0.45"/>
    </g>

    <!-- Dashed inner hexagon -->
    <polygon points="0,-98 85,-49 85,49 0,98 -85,49 -85,-49" fill="none" stroke="#378ADD" stroke-width="1" stroke-dasharray="6 4" opacity="0.45"/>
  </g>

  <!-- Wordmark -->
  <text x="340" y="385" text-anchor="middle" font-family="'Helvetica Neue', Arial, sans-serif" font-size="42" font-weight="500" fill="#e8e8e8" letter-spacing="8">ODME</text>

  <!-- Full name -->
  <text x="340" y="418" text-anchor="middle" font-family="'Helvetica Neue', Arial, sans-serif" font-size="12" font-weight="400" fill="#aaaaaa" letter-spacing="3.5">OPERATIONAL DOMAIN MODELLING ENVIRONMENT</text>

  <!-- Tagline -->
  <text x="340" y="450" text-anchor="middle" font-family="'Helvetica Neue', Arial, sans-serif" font-size="11" font-weight="400" fill="#777777" letter-spacing="1">Scenario Coverage for AI-based Aviation Systems</text>
</svg>
